<?xml version="1.0" standalone="no"?>
<!DOCTYPE svg PUBLIC "-//W3C//DTD SVG 20010904//EN"
 "http://www.w3.org/TR/2001/REC-SVG-20010904/DTD/svg10.dtd">
<svg version="1.0" xmlns="http://www.w3.org/2000/svg"
 width="330.000000pt" height="330.000000pt" viewBox="0 0 330.000000 330.000000"
 preserveAspectRatio="xMidYMid meet">
<metadata>
Created by potrace 1.11, written by Peter Selinger 2001-2013
</metadata>
<g transform="translate(0.000000,330.000000) scale(0.100000,-0.100000)"
fill="#000000" stroke="none">
<path d="M1556 3093 c-197 -45 -306 -198 -308 -437 -1 -85 10 -412 16 -501 2
-22 -3 -55 -10 -73 -11 -28 -72 -114 -126 -177 -67 -79 -131 -166 -148 -200
-11 -22 -32 -83 -47 -135 -15 -53 -59 -161 -100 -244 -77 -155 -89 -204 -65
-267 8 -21 5 -33 -17 -70 -42 -67 -54 -73 -148 -80 -74 -5 -87 -8 -111 -32
-26 -27 -27 -31 -23 -115 8 -170 5 -213 -23 -275 -37 -83 -34 -117 13 -141 36
-19 183 -62 311 -92 126 -29 187 -48 260 -81 31 -14 82 -28 117 -30 96 -9 150
24 218 131 27 42 350 40 565 -4 52 -11 98 -20 102 -20 3 0 27 -20 52 -45 51
-49 103 -69 182 -68 65 0 127 33 214 115 84 79 122 104 258 173 119 60 172
108 172 155 0 32 -4 37 -65 85 -127 102 -138 117 -156 219 -9 55 -16 71 -40
88 -23 17 -26 24 -18 40 6 11 13 29 15 41 3 12 8 33 11 47 19 80 -6 259 -57
405 -56 163 -97 237 -180 325 -73 79 -126 161 -194 301 -37 75 -68 145 -71
156 -2 12 -6 83 -9 160 -6 138 -13 221 -21 263 -26 134 -119 264 -237 333 -87
52 -230 73 -332 50z"/>
</g>
</svg>
